<?xml version="1.0" standalone="no"?>
<!DOCTYPE svg PUBLIC "-//W3C//DTD SVG 20010904//EN"
 "http://www.w3.org/TR/2001/REC-SVG-20010904/DTD/svg10.dtd">
<svg version="1.0" xmlns="http://www.w3.org/2000/svg"
 width="61.000000pt" height="63.000000pt" viewBox="0 0 61.000000 63.000000"
 preserveAspectRatio="xMidYMid meet">

<g transform="translate(0.000000,63.000000) scale(0.100000,-0.100000)"
fill="#000000" stroke="none">
<path d="M275 478 c-52 -28 -60 -84 -20 -138 35 -47 32 -66 -16 -98 -59 -39
-101 -80 -94 -92 4 -6 67 -10 161 -10 145 0 154 1 154 19 0 21 -26 45 -84 76
-47 25 -56 57 -27 96 44 59 37 124 -16 148 -29 13 -33 13 -58 -1z"/>
</g>
</svg>
